<svg xmlns="http://www.w3.org/2000/svg" width="33.654" height="33.654" viewBox="0 0 33.654 33.654">
  <g id="icons" transform="translate(0 0)">
    <rect id="bg" width="33.654" height="33.654" rx="6.731" transform="translate(0 0)" fill="#5843be" opacity="0.1"/>
    <g id="icons-2" data-name="icons">
      <g id="goals">
        <path id="Fill_2" data-name="Fill 2" d="M16.962,22.212a3.231,3.231,0,1,1,3.23-3.231A3.235,3.235,0,0,1,16.962,22.212Zm0-5.385a2.154,2.154,0,1,0,2.154,2.154A2.157,2.157,0,0,0,16.962,16.827Z" fill="#5843be"/>
        <path id="Fill_4" data-name="Fill 4" d="M16.961,24.9a5.914,5.914,0,0,1-4-10.277L9.518,9.592a.538.538,0,0,1,.444-.842H14.27A.534.534,0,0,1,14.726,9l2.236,3.578L19.2,9a.534.534,0,0,1,.456-.253h4.307a.539.539,0,0,1,.445.842l-3.443,5.035a5.914,5.914,0,0,1-4,10.277Zm0-10.769a4.847,4.847,0,1,0,4.847,4.847A4.852,4.852,0,0,0,16.961,14.135Zm2.991-4.307h0l-2.068,3.31a5.865,5.865,0,0,1,2.224.833l2.834-4.144h-2.99Zm-8.97,0,2.834,4.144a5.862,5.862,0,0,1,2.224-.833l-2.069-3.31H10.982Z" fill="#5843be"/>
      </g>
    </g>
  </g>
</svg>
