<svg xmlns="http://www.w3.org/2000/svg" width="33.654" height="33.654" viewBox="0 0 33.654 33.654">
  <g id="icons" transform="translate(0 0)">
    <rect id="bg" width="33.654" height="33.654" rx="6.623" transform="translate(0 0)" fill="#fa5f1c" opacity="0.1"/>
    <g id="icons-2" data-name="icons">
      <g id="earnings">
        <path id="Fill_2" data-name="Fill 2" d="M15.349,25.828a.617.617,0,0,1-.415-.16L9.476,20.722l0,0-.006-.006-.007-.006a.48.48,0,0,1-.073-.1l-.015-.024a.29.29,0,0,0-.02-.028.2.2,0,0,1-.024-.036l0-.007a.255.255,0,0,1-.016-.062c0-.012,0-.024-.007-.036l0-.012c0-.012-.006-.024-.01-.036a.3.3,0,0,1-.015-.077.039.039,0,0,1,0-.01.026.026,0,0,0,0-.01V7.9a.619.619,0,0,1,.618-.618h7.417a.619.619,0,0,1,.618.618V9.478l3.387,1.31a.62.62,0,0,1,.356.795l-.543,1.438,2.779,2.52a.619.619,0,0,1,.048.867l-8.14,9.212a.618.618,0,0,1-.428.208Zm-2.574-3.786h0L15.3,24.332l.864-.977Zm.431-1.159h0l3.17,1.226.463-1.227Zm7.45-6.619-2.638,6.992,4.6-5.21ZM10.508,8.52V19.647h6.182V8.52ZM17.926,10.8V18l1.888-5,.481-1.274ZM13.6,17.793a.619.619,0,0,1-.618-.618v-.618h-.617a.618.618,0,1,1,0-1.237h1.545a.309.309,0,1,0,0-.617H13.29a1.545,1.545,0,0,1-.31-3.059v-.65a.618.618,0,1,1,1.237,0v.618h.618a.618.618,0,1,1,0,1.236H13.29a.309.309,0,1,0,0,.618h.618a1.545,1.545,0,0,1,.309,3.059v.65A.619.619,0,0,1,13.6,17.793Z" fill="#fa5f1c"/>
      </g>
    </g>
  </g>
</svg>
