<svg xmlns="http://www.w3.org/2000/svg" width="33.654" height="33.654" viewBox="0 0 33.654 33.654">
  <g id="icons" transform="translate(0 0)">
    <rect id="bg" width="33.654" height="33.654" rx="6.863" transform="translate(0 0)" fill="#1a55af" opacity="0.1"/>
    <g id="icons-2" data-name="icons">
      <g id="harvested_losses" data-name="harvested losses">
        <path id="Fill_2" data-name="Fill 2" d="M2.242,5.124H.641a.641.641,0,0,0,0,1.281h.641v.641a.641.641,0,1,0,1.281,0V6.372a1.6,1.6,0,0,0-.32-3.17H1.6a.32.32,0,1,1,0-.641H3.2a.641.641,0,1,0,0-1.281H2.562V.641a.641.641,0,1,0-1.281,0v.673a1.6,1.6,0,0,0,.32,3.17h.641a.32.32,0,0,1,0,.641Z" transform="translate(8.191 7.549)" fill="#1a55af"/>
        <path id="Fill_4" data-name="Fill 4" d="M13.451,5.765H3.843A.641.641,0,0,1,3.2,5.124V2.187l.828.828a.64.64,0,0,0,.906-.906L3.015.188a.64.64,0,0,0-.906,0L.188,2.109a.64.64,0,0,0,.906.906l.828-.828V5.124A1.924,1.924,0,0,0,3.843,7.046h9.608a.641.641,0,1,0,0-1.281Z" transform="translate(7.55 16.516)" fill="#1a55af"/>
        <path id="Fill_6" data-name="Fill 6" d="M1.6,2.562H3.2a.641.641,0,1,0,0-1.281H2.562V.641a.641.641,0,1,0-1.281,0v.673a1.6,1.6,0,0,0,.32,3.17h.641a.32.32,0,0,1,0,.641H.641a.641.641,0,0,0,0,1.281h.641v.641a.641.641,0,1,0,1.281,0V6.372a1.6,1.6,0,0,0-.32-3.17H1.6a.32.32,0,1,1,0-.641Z" transform="translate(22.282 19.078)" fill="#1a55af"/>
        <path id="Fill_8" data-name="Fill 8" d="M13.9,4.031a.64.64,0,0,0-.906,0l-.828.828V1.922A1.924,1.924,0,0,0,10.248,0H.641a.641.641,0,0,0,0,1.281h9.608a.641.641,0,0,1,.641.641V4.859l-.828-.828a.64.64,0,0,0-.906.906l1.922,1.922a.64.64,0,0,0,.906,0L13.9,4.936A.64.64,0,0,0,13.9,4.031Z" transform="translate(12.675 10.752)" fill="#1a55af"/>
      </g>
    </g>
  </g>
</svg>
