<svg xmlns="http://www.w3.org/2000/svg" width="33.654" height="33.654" viewBox="0 0 33.654 33.654">
  <g id="icons" transform="translate(0 0)">
    <rect id="bg" width="33.654" height="33.654" rx="6.623" transform="translate(0 0)" fill="#427a0a" opacity="0.1"/>
    <g id="icons-2" data-name="icons">
      <g id="net_worth" data-name="net worth">
        <path id="Fill_2" data-name="Fill 2" d="M12.231,25.829H9.759a.619.619,0,0,1-.618-.618V17.793a.619.619,0,0,1,.618-.618h2.472a.619.619,0,0,1,.618.618v7.418A.619.619,0,0,1,12.231,25.829Zm-1.854-7.418v6.181h1.237V18.411Z" fill="#427a0a"/>
        <path id="Fill_4" data-name="Fill 4" d="M17.795,25.829H15.323a.619.619,0,0,1-.618-.618V12.848a.619.619,0,0,1,.618-.618h2.472a.619.619,0,0,1,.618.618V25.211A.619.619,0,0,1,17.795,25.829ZM15.94,13.467V24.593h1.237V13.467Z" fill="#427a0a"/>
        <path id="Fill_5" data-name="Fill 5" d="M23.358,25.829H20.885a.619.619,0,0,1-.618-.618V7.9a.619.619,0,0,1,.618-.617h2.472a.619.619,0,0,1,.618.617V25.211A.619.619,0,0,1,23.358,25.829ZM21.5,8.521V24.593h1.236V8.521Z" fill="#427a0a"/>
      </g>
    </g>
  </g>
</svg>
