<svg xmlns="http://www.w3.org/2000/svg" width="96" height="16.364" viewBox="0 0 96 16.364">
  <g id="Shape" transform="translate(-170 -3906.5)">
    <path id="Star_1" data-name="Star 1" d="M8.727,0l2.182,6.085,6.545.165-5.2,3.926,1.863,6.187L8.727,12.7,3.334,16.364,5.2,10.176,0,6.25l6.545-.165Z" transform="translate(170 3906.5)" fill="#fe8b75"/>
    <path id="Star_2" data-name="Star 2" d="M8.727,0l2.182,6.085,6.545.165-5.2,3.926,1.863,6.187L8.727,12.7,3.334,16.364,5.2,10.176,0,6.25l6.545-.165Z" transform="translate(189.636 3906.5)" fill="#fe8b75"/>
    <path id="Star_3" data-name="Star 3" d="M8.727,0l2.182,6.085,6.545.165-5.2,3.926,1.863,6.187L8.727,12.7,3.334,16.364,5.2,10.176,0,6.25l6.545-.165Z" transform="translate(209.273 3906.5)" fill="#fe8b75"/>
    <path id="Star_4" data-name="Star 4" d="M8.727,0l2.182,6.085,6.545.165-5.2,3.926,1.863,6.187L8.727,12.7,3.334,16.364,5.2,10.176,0,6.25l6.545-.165Z" transform="translate(228.909 3906.5)" fill="#fe8b75"/>
    <path id="Star_5" data-name="Star 5" d="M8.727,0l2.182,6.085,6.545.165-5.2,3.926,1.863,6.187L8.727,12.7,3.334,16.364,5.2,10.176,0,6.25l6.545-.165Z" transform="translate(248.545 3906.5)" fill="#fe8b75"/>
  </g>
</svg>
